<?xml version="1.0" encoding="UTF-8"?>
<svg width="11px" height="11px" viewBox="0 0 11 11" version="1.1" xmlns="http://www.w3.org/2000/svg" xmlns:xlink="http://www.w3.org/1999/xlink">
    <!-- Generator: Sketch 49.3 (51167) - http://www.bohemiancoding.com/sketch -->
    <title>Icon/Help</title>
    <desc>Created with Sketch.</desc>
    <defs></defs>
    <g id="Icon/Help" stroke="none" stroke-width="1" fill="none" fill-rule="evenodd">
        <circle id="Oval-3" stroke="#B7BBBD" cx="5.5" cy="5.5" r="5.5"></circle>
        <path d="M5.1124031,6.44444444 C5.1124031,6.10971474 5.19153668,5.83232715 5.3498062,5.61227336 C5.50807573,5.39221957 5.73901657,5.15202362 6.04263566,4.89167829 C6.27519496,4.69331994 6.44799685,4.52130865 6.56104651,4.37563924 C6.67409617,4.22996983 6.73062016,4.06415714 6.73062016,3.87819619 C6.73062016,3.61785086 6.62080213,3.40709828 6.40116279,3.24593212 C6.18152345,3.08476597 5.88759874,3.0041841 5.51937984,3.0041841 C4.82170194,3.0041841 4.29522141,3.2428304 3.93992248,3.72013017 L3,3.13435611 C3.27777917,2.76863291 3.63630271,2.48814603 4.0755814,2.29288703 C4.51486008,2.09762803 5.03165078,2 5.62596899,2 C6.34948682,2 6.92603144,2.15031618 7.35562016,2.45095305 C7.78520887,2.75158991 8,3.16534682 8,3.69223617 C8,3.9463828 7.95639578,4.16953259 7.86918605,4.36169224 C7.78197631,4.55385188 7.6770032,4.71656527 7.55426357,4.84983728 C7.43152393,4.9831093 7.27002684,5.13652478 7.06976744,5.31008833 C6.82428818,5.52084407 6.64179646,5.70680223 6.52228682,5.86796839 C6.40277718,6.02913454 6.34302326,6.22129131 6.34302326,6.44444444 L5.1124031,6.44444444 Z M5.73255814,8.66666667 C5.50645882,8.66666667 5.32073716,8.59693236 5.1753876,8.45746165 C5.03003803,8.31799093 4.95736434,8.14597964 4.95736434,7.94142259 C4.95736434,7.73686555 5.03003803,7.56640391 5.1753876,7.43003254 C5.32073716,7.29366118 5.50645882,7.22547652 5.73255814,7.22547652 C5.95219748,7.22547652 6.1346892,7.29366118 6.28003876,7.43003254 C6.42538832,7.56640391 6.49806202,7.73686555 6.49806202,7.94142259 C6.49806202,8.14597964 6.42538832,8.31799093 6.28003876,8.45746165 C6.1346892,8.59693236 5.95219748,8.66666667 5.73255814,8.66666667 Z" id="?" fill="#B7BBBD"></path>
    </g>
</svg>